<?xml version="1.0" encoding="UTF-8" standalone="no"?>
<!-- Created with Inkscape (http://www.inkscape.org/) -->

<svg
   data-widget-type="key"
   viewBox="0 0 90 90"
   version="1.1"
   inkscape:version="1.4 (e7c3feb1, 2024-10-09)"
   sodipodi:docname="widget-icon_keypad.svg"
   class="up"
   data-char="A"
   id="svg1"
   xmlns:inkscape="http://www.inkscape.org/namespaces/inkscape"
   xmlns:sodipodi="http://sodipodi.sourceforge.net/DTD/sodipodi-0.dtd"
   xmlns="http://www.w3.org/2000/svg"
   xmlns:svg="http://www.w3.org/2000/svg">
  <sodipodi:namedview
     id="namedview1"
     pagecolor="#ffffff"
     bordercolor="#000000"
     borderopacity="0.25"
     inkscape:showpageshadow="2"
     inkscape:pageopacity="0.0"
     inkscape:pagecheckerboard="true"
     inkscape:deskcolor="#d1d1d1"
     inkscape:document-units="mm"
     showborder="true"
     inkscape:zoom="7.1909654"
     inkscape:cx="48.741717"
     inkscape:cy="49.29797"
     inkscape:window-width="1808"
     inkscape:window-height="1186"
     inkscape:window-x="499"
     inkscape:window-y="144"
     inkscape:window-maximized="0"
     inkscape:current-layer="layer1"
     showgrid="false" />
  <defs id="defs1" />
  <style>
    /* global */

    svg[data-widget-type=&quot;key&quot;] tspan.char {
      font-family: sans-serif;
      font-weight: bold;
    }

    svg[data-widget-type=&quot;key&quot;] tspan {
      font-size: 54.1241px;
      text-align: center;
      writing-mode: lr-tb;
      direction: ltr;
      text-anchor: middle;
      display: inline;
      fill: #000000;
      stroke: none;
    }

    svg[data-widget-type=&quot;key&quot;] .fillPrimary {
      fill:#ffffff;
      fill-opacity:1;
    }
  </style>
  <g
     inkscape:groupmode="layer"
     id="background"
     inkscape:label="background"
     transform="translate(-5.5291653,-5)"
     sodipodi:insensitive="true">
    <rect
       style="fill:#ffffff;stroke:none;display:none"
       id="rect1"
       width="90"
       height="90"
       x="5.5291653"
       y="5" />
  </g>
  <g
     inkscape:groupmode="layer"
     id="layer1"
     inkscape:label="keys"
     transform="translate(-0.4944772,-0.77955328)">
    <g
       inkscape:label="h"
       inkscape:groupmode="layer"
       id="up"
       transform="matrix(0.50886707,0,0,0.50886707,0.07248084,0.34175533)">
      <g
         id="g1">
        <path
           id="path2"
           style="fill:#000000;stroke:#000000;stroke-width:1.18619;stroke-dasharray:none;stroke-opacity:1"
           inkscape:label="base"
           d="M 27.5899,15.443324 A 41.516607,41.516607 0 0 0 15.972489,27.060735 v 45.87853 A 41.516607,41.516607 0 0 0 27.5899,84.556676 H 73.468431 A 41.516607,41.516607 0 0 0 85.085842,72.939265 V 26.991832 A 41.516607,41.516607 0 0 0 73.537333,15.443324 Z" />
        <path
           id="path3"
           class="fillPrimary"
           style="stroke:#000000;stroke-width:1.13386;stroke-dasharray:none;stroke-opacity:1"
           inkscape:label="top"
           d="M 23.589901,11.443324 A 41.516607,41.516607 0 0 0 11.97249,23.060735 v 45.87853 A 41.516607,41.516607 0 0 0 23.589901,80.556676 H 69.46843 A 41.516607,41.516607 0 0 0 81.08584,68.939265 V 22.991832 A 41.516607,41.516607 0 0 0 69.53733,11.443324 Z" />
        <text
           xml:space="preserve"
           x="46.529163"
           y="65.675484"
           id="text3-2"
           inkscape:label="char"
           style="display:inline"><tspan
             sodipodi:role="line"
             id="tspan3-8"
             class="char"
             x="46.529163"
             y="65.675484">h</tspan></text>
      </g>
    </g>
    <g
       inkscape:label="e"
       inkscape:groupmode="layer"
       id="g4"
       transform="matrix(0.50886707,0,0,0.50886707,41.51337,0.06362851)">
      <g
         id="g2"
         transform="translate(0,0.54656085)">
        <path
           id="path1"
           style="fill:#000000;stroke:#000000;stroke-width:1.18619;stroke-dasharray:none;stroke-opacity:1"
           inkscape:label="base"
           d="M 27.5899,15.443324 A 41.516607,41.516607 0 0 0 15.972489,27.060735 v 45.87853 A 41.516607,41.516607 0 0 0 27.5899,84.556676 H 73.468431 A 41.516607,41.516607 0 0 0 85.085842,72.939265 V 26.991832 A 41.516607,41.516607 0 0 0 73.537333,15.443324 Z" />
        <path
           id="path4"
           class="fillPrimary"
           style="stroke:#000000;stroke-width:1.13386;stroke-dasharray:none;stroke-opacity:1"
           inkscape:label="top"
           d="M 23.589901,11.443324 A 41.516607,41.516607 0 0 0 11.97249,23.060735 v 45.87853 A 41.516607,41.516607 0 0 0 23.589901,80.556676 H 69.46843 A 41.516607,41.516607 0 0 0 81.08584,68.939265 V 22.991832 A 41.516607,41.516607 0 0 0 69.53733,11.443324 Z" />
        <text
           xml:space="preserve"
           x="46.529163"
           y="65.675484"
           id="text4"
           inkscape:label="char"><tspan
             sodipodi:role="line"
             id="tspan4"
             class="char"
             x="46.529163"
             y="65.675484">e</tspan></text>
      </g>
    </g>
    <g
       inkscape:label="l"
       inkscape:groupmode="layer"
       id="g6"
       transform="matrix(0.50886707,0,0,0.50886707,-0.06658255,42.352798)">
      <g
         id="g7"
         transform="translate(0.27328039)">
        <path
           id="path5"
           style="fill:#000000;stroke:#000000;stroke-width:1.18619;stroke-dasharray:none;stroke-opacity:1"
           inkscape:label="base"
           d="M 27.5899,15.443324 A 41.516607,41.516607 0 0 0 15.972489,27.060735 v 45.87853 A 41.516607,41.516607 0 0 0 27.5899,84.556676 H 73.468431 A 41.516607,41.516607 0 0 0 85.085842,72.939265 V 26.991832 A 41.516607,41.516607 0 0 0 73.537333,15.443324 Z" />
        <path
           id="path6"
           class="fillPrimary"
           style="stroke:#000000;stroke-width:1.13386;stroke-dasharray:none;stroke-opacity:1"
           inkscape:label="top"
           d="M 23.589901,11.443324 A 41.516607,41.516607 0 0 0 11.97249,23.060735 v 45.87853 A 41.516607,41.516607 0 0 0 23.589901,80.556676 H 69.46843 A 41.516607,41.516607 0 0 0 81.08584,68.939265 V 22.991832 A 41.516607,41.516607 0 0 0 69.53733,11.443324 Z" />
        <text
           xml:space="preserve"
           x="46.529163"
           y="65.675484"
           id="text6"
           inkscape:label="char"><tspan
             sodipodi:role="line"
             id="tspan6"
             class="char"
             x="46.529163"
             y="65.675484">l</tspan></text>
      </g>
    </g>
    <g
       inkscape:label="o"
       inkscape:groupmode="layer"
       id="g8"
       transform="matrix(0.50886707,0,0,0.50886707,42.069623,42.756088)">
      <g
         id="g5"
         transform="translate(-1.0931204,-0.79252525)">
        <path
           id="path7"
           style="fill:#000000;stroke:#000000;stroke-width:1.18619;stroke-dasharray:none;stroke-opacity:1"
           inkscape:label="base"
           d="M 27.5899,15.443324 A 41.516607,41.516607 0 0 0 15.972489,27.060735 v 45.87853 A 41.516607,41.516607 0 0 0 27.5899,84.556676 H 73.468431 A 41.516607,41.516607 0 0 0 85.085842,72.939265 V 26.991832 A 41.516607,41.516607 0 0 0 73.537333,15.443324 Z" />
        <path
           id="path8"
           class="fillPrimary"
           style="stroke:#000000;stroke-width:1.13386;stroke-dasharray:none;stroke-opacity:1"
           inkscape:label="top"
           d="M 23.589901,11.443324 A 41.516607,41.516607 0 0 0 11.97249,23.060735 v 45.87853 A 41.516607,41.516607 0 0 0 23.589901,80.556676 H 69.46843 A 41.516607,41.516607 0 0 0 81.08584,68.939265 V 22.991832 A 41.516607,41.516607 0 0 0 69.53733,11.443324 Z" />
        <text
           xml:space="preserve"
           x="46.529163"
           y="65.675484"
           id="text8"
           inkscape:label="char"><tspan
             sodipodi:role="line"
             id="tspan8"
             class="char"
             x="46.529163"
             y="65.675484">o</tspan></text>
      </g>
    </g>
  </g>
</svg>
